# xmcd CD database file
#
# Track frame offsets:
#	150
#	24779
#	35371
#	45820
#	62533
#	74785
#	84705
#	97754
#	108783
#	123486
#	133967
#	149108
#	157446
#
# Disc length: 2404 seconds
#
# Revision: 0
# Processed by: cddbd v1.5.2PL0 Copyright (c) Steve Scherf et al.
# Submitted via: CDex 1.51
#
DISCID=b509620d
DTITLE=Bob Log III - My Shit Is Perfect
DYEAR=2009
DGENRE=Blues
TTITLE0=Goddam Sounds Good
TTITLE1=Mr. Sis Boom Bah
TTITLE2=It's The Law
TTITLE3=Bump Pow! Bump Bump Bump Pow! Bump Pow! Bump Bump Bump Baby! Bump Pow! Bump Bump Bump Pow! Bump Pow! Bump Bump Bump
TTITLE4=Manipulate Your Figments (Serge remix)
TTITLE5=Bucktooth Potato
TTITLE6=My Shit Is Perfect
TTITLE7=You, Or You And You, And Me
TTITLE8=Bumper Car
TTITLE9=Bang At Your Thing At The Ball
TTITLE10=Shake A Little, Wiggle It and Jiggle It Too
TTITLE11=Shinkansen Teh
TTITLE12=Goddam Sounds Good Again
EXTD=YEAR: 2009
EXTT0=
EXTT1=
EXTT2=
EXTT3=
EXTT4=
EXTT5=
EXTT6=
EXTT7=
EXTT8=
EXTT9=
EXTT10=
EXTT11=
EXTT12=
PLAYORDER=
